<svg width="48" height="48" viewBox="0 0 48 48" fill="none" xmlns="http://www.w3.org/2000/svg">
<path fill-rule="evenodd" clip-rule="evenodd" d="M37 11.5C37 10.6716 36.3284 10 35.5 10L11.5 10C10.6716 10 10 10.6716 10 11.5V27.5C10 28.3284 10.6716 29 11.5 29C12.3284 29 13 28.3284 13 27.5V13H34V15.5C34 16.3284 34.6716 17 35.5 17C36.3284 17 37 16.3284 37 15.5V11.5Z" fill="#4C5EF6"/>
<path fill-rule="evenodd" clip-rule="evenodd" d="M36.5607 20.9393C35.9749 20.3536 35.0251 20.3536 34.4393 20.9393L30.9392 24.4395C30.3534 25.0252 30.3534 25.975 30.9392 26.5608C31.525 27.1466 32.4748 27.1466 33.0605 26.5608L34 25.6213V36.5C34 37.3284 34.6716 38 35.5 38C36.3284 38 37 37.3284 37 36.5V25.6213L37.9395 26.5608C38.5252 27.1466 39.475 27.1466 40.0608 26.5608C40.6466 25.975 40.6466 25.0252 40.0608 24.4395L36.5607 20.9393ZM27.5 27C26.6716 27 26 27.6716 26 28.5V36.5C26 37.3284 26.6716 38 27.5 38C28.3284 38 29 37.3284 29 36.5V28.5C29 27.6716 28.3284 27 27.5 27ZM18 31.5C18 30.6716 18.6716 30 19.5 30C20.3284 30 21 30.6716 21 31.5V36.5C21 37.3284 20.3284 38 19.5 38C18.6716 38 18 37.3284 18 36.5V31.5ZM10 33.5C10 32.6716 10.6716 32 11.5 32C12.3284 32 13 32.6716 13 33.5V36.5C13 37.3284 12.3284 38 11.5 38C10.6716 38 10 37.3284 10 36.5V33.5Z" fill="#7CB7F3"/>
</svg>
